<?xml version="1.0" encoding="UTF-8"?>
<svg width="200" height="200" viewBox="0 0 200 200" xmlns="http://www.w3.org/2000/svg">
  <!-- Background -->
  <rect width="200" height="200" fill="#f5f5f5"/>
  
  <!-- Face -->
  <ellipse cx="100" cy="90" rx="42" ry="52" fill="#fdbcb4"/>
  
  <!-- Hair -->
  <path d="M58 65 Q100 42 142 65 Q142 55 138 48 Q128 38 118 33 Q108 28 100 28 Q92 28 82 33 Q72 38 62 48 Q58 55 58 65 Z" fill="#1a1a1a"/>
  <path d="M58 65 Q62 72 72 77 Q82 72 92 77 Q100 72 108 77 Q118 72 128 77 Q138 72 142 65 Q142 68 138 72 Q128 77 118 79 Q108 80 100 80 Q92 80 82 79 Q72 77 62 72 Q58 68 58 65 Z" fill="#1a1a1a"/>
  
  <!-- Eyes -->
  <ellipse cx="87" cy="85" rx="7" ry="5" fill="white"/>
  <ellipse cx="113" cy="85" rx="7" ry="5" fill="white"/>
  <circle cx="87" cy="85" r="3.5" fill="#2d1810"/>
  <circle cx="113" cy="85" r="3.5" fill="#2d1810"/>
  <circle cx="88" cy="84" r="1" fill="white"/>
  <circle cx="114" cy="84" r="1" fill="white"/>
  
  <!-- Eyebrows -->
  <path d="M81 79 Q87 77 93 79" stroke="#1a1a1a" stroke-width="2" fill="none"/>
  <path d="M107 79 Q113 77 119 79" stroke="#1a1a1a" stroke-width="2" fill="none"/>
  
  <!-- Nose -->
  <path d="M100 95 L99 103 Q100 105 101 103 Z" fill="#f4a89a"/>
  
  <!-- Mouth -->
  <path d="M94 115 Q100 120 106 115" stroke="#c86b5a" stroke-width="2.5" fill="none"/>
  
  <!-- Glasses -->
  <circle cx="87" cy="85" r="15" stroke="#333" stroke-width="2" fill="none"/>
  <circle cx="113" cy="85" r="15" stroke="#333" stroke-width="2" fill="none"/>
  <path d="M102 85 L108 85" stroke="#333" stroke-width="2"/>
  <path d="M72 85 L77 83" stroke="#333" stroke-width="2"/>
  <path d="M123 85 L128 83" stroke="#333" stroke-width="2"/>
  
  <!-- Neck -->
  <rect x="85" y="142" width="30" height="28" fill="#fdbcb4"/>
  
  <!-- Shoulders -->
  <path d="M70 170 Q100 165 130 170 L140 200 L60 200 Z" fill="#2c3e50"/>
</svg>