<?xml version="1.0" encoding="UTF-8"?>
<svg width="200" height="200" viewBox="0 0 200 200" xmlns="http://www.w3.org/2000/svg">
  <!-- Background -->
  <rect width="200" height="200" fill="#f8f9fa"/>
  
  <!-- Face -->
  <ellipse cx="100" cy="88" rx="43" ry="53" fill="#fdbcb4"/>
  
  <!-- Hair -->
  <path d="M57 65 Q100 42 143 65 Q143 55 139 48 Q129 38 119 33 Q109 28 100 28 Q91 28 81 33 Q71 38 61 48 Q57 55 57 65 Z" fill="#daa520"/>
  <path d="M57 65 Q61 72 71 77 Q81 72 91 77 Q100 72 109 77 Q119 72 129 77 Q139 72 143 65 Q143 68 139 72 Q129 77 119 79 Q109 80 100 80 Q91 80 81 79 Q71 77 61 72 Q57 68 57 65 Z" fill="#daa520"/>
  
  <!-- Eyes -->
  <ellipse cx="86" cy="83" rx="8" ry="6" fill="white"/>
  <ellipse cx="114" cy="83" rx="8" ry="6" fill="white"/>
  <circle cx="86" cy="83" r="4" fill="#4682b4"/>
  <circle cx="114" cy="83" r="4" fill="#4682b4"/>
  <circle cx="87" cy="82" r="1.5" fill="white"/>
  <circle cx="115" cy="82" r="1.5" fill="white"/>
  
  <!-- Eyebrows -->
  <path d="M79 77 Q86 75 93 77" stroke="#daa520" stroke-width="2" fill="none"/>
  <path d="M107 77 Q114 75 121 77" stroke="#daa520" stroke-width="2" fill="none"/>
  
  <!-- Nose -->
  <path d="M100 93 L98 103 Q100 105 102 103 Z" fill="#f4a89a"/>
  
  <!-- Mouth -->
  <path d="M93 113 Q100 118 107 113" stroke="#c86b5a" stroke-width="2.5" fill="none"/>
  
  <!-- Facial hair -->
  <path d="M88 120 Q100 125 112 120 Q112 128 108 132 Q104 135 100 135 Q96 135 92 132 Q88 128 88 120 Z" fill="#daa520"/>
  
  <!-- Neck -->
  <rect x="84" y="141" width="32" height="29" fill="#fdbcb4"/>
  
  <!-- Shoulders -->
  <path d="M68 170 Q100 165 132 170 L142 200 L58 200 Z" fill="#34495e"/>
</svg>